<svg width="16" height="16" viewBox="0 0 16 16" fill="none" xmlns="http://www.w3.org/2000/svg">
<path fill-rule="evenodd" clip-rule="evenodd" d="M12.8051 1.52827C12.5447 1.26792 12.1226 1.26792 11.8623 1.52827L4.86225 8.52827C4.73723 8.65329 4.66699 8.82286 4.66699 8.99967V11.333C4.66699 11.7012 4.96547 11.9997 5.33366 11.9997H7.66699C7.8438 11.9997 8.01337 11.9294 8.1384 11.8044L15.1384 4.80441C15.3987 4.54406 15.3987 4.12195 15.1384 3.8616L12.8051 1.52827ZM6.00033 10.6663V9.27582L12.3337 2.94248L13.7242 4.33301L7.39085 10.6663H6.00033Z" fill="white"/>
<path d="M3.00033 9.99967C1.71166 9.99967 0.666992 11.0444 0.666992 12.333C0.666992 13.6217 1.71166 14.6663 3.00033 14.6663H14.0003C14.3685 14.6663 14.667 14.3679 14.667 13.9997C14.667 13.6315 14.3685 13.333 14.0003 13.333H3.00033C2.44804 13.333 2.00033 12.8853 2.00033 12.333C2.00033 11.7807 2.44804 11.333 3.00033 11.333C3.36852 11.333 3.66699 11.0345 3.66699 10.6663C3.66699 10.2982 3.36852 9.99967 3.00033 9.99967Z" fill="white"/>
</svg>
